<svg width="393" height="59" viewBox="0 0 393 59" fill="none" xmlns="http://www.w3.org/2000/svg">
<rect opacity="0.35" x="325.5" y="22.5" width="24" height="13" rx="3" fill="white" stroke="white"/>
<rect x="327" y="24" width="21" height="10" rx="3" fill="white"/>
<path opacity="0.35" d="M351 27C351 27 353 27.4 353 29C353 30.6 351 31 351 31V27Z" fill="white"/>
<path fill-rule="evenodd" clip-rule="evenodd" d="M309.499 31C310.866 31 312.104 31.5596 312.999 32.4645L309.499 36L306 32.4645C306.895 31.5596 308.133 31 309.499 31ZM309.499 26C312.233 26 314.708 27.1193 316.499 28.9289L314.399 31.0503C313.145 29.7835 311.413 29 309.499 29C307.586 29 305.854 29.7835 304.6 31.0503L302.5 28.9289C304.291 27.1193 306.766 26 309.499 26ZM309.132 21.0045L309.5 21L309.949 21.0067L310.343 21.0238L310.683 21.0469L311.115 21.0877L311.475 21.1315L311.865 21.1892L312.268 21.2603V21.2603L312.668 21.3423L313.016 21.4231L313.422 21.529V21.529L313.838 21.6503L314.123 21.7414L314.435 21.8484L314.77 21.9725L315.143 22.1212V22.1212L315.509 22.2793L315.849 22.4366L316.179 22.6V22.6L316.505 22.7712L316.822 22.9475L317.125 23.1264L317.45 23.3294V23.3294L317.771 23.5407L318.068 23.748L318.338 23.9456V23.9456L318.695 24.2218L318.959 24.4373L319.224 24.6637L319.52 24.9307V24.9307L319.832 25.2274V25.2274L320 25.3944L317.899 27.5147C315.749 25.3431 312.78 24 309.5 24C306.22 24 303.25 25.3429 301.1 27.5142L299 25.3934L299.024 25.3694C299.112 25.2804 299.202 25.1926 299.293 25.1058C299.472 24.9346 299.655 24.7677 299.842 24.6055L300.049 24.4298L300.304 24.2221L300.531 24.0446V24.0446L300.781 23.8567V23.8567L301.035 23.6739L301.183 23.572L301.592 23.3017L301.899 23.1114L302.178 22.9475L302.587 22.721L302.916 22.5511V22.5511L303.251 22.3891L303.563 22.2469L303.929 22.0913V22.0913L304.3 21.9455L304.628 21.8258L305.052 21.6844V21.6844L305.344 21.5953L305.726 21.4886L306.104 21.394L306.433 21.3203L306.811 21.2452V21.2452L307.194 21.1798L307.562 21.1265L307.945 21.0812L308.336 21.0453L308.768 21.0179L309.132 21.0045Z" fill="white"/>
<rect x="272" y="30" width="4" height="5" rx="1.5" fill="white"/>
<rect x="278" y="28" width="4" height="7" rx="1.5" fill="white"/>
<rect x="284" y="25" width="4" height="10" rx="1.5" fill="white"/>
<rect x="290" y="22" width="4" height="13" rx="1.5" fill="white"/>
<path d="M45.937 22C43.054 22 41 23.9776 41 26.6851V26.7036C41 29.2356 42.7869 31.1023 45.3383 31.1023C47.1621 31.1023 48.3226 30.169 48.8108 29.1155H48.995C48.995 29.2172 48.9858 29.3188 48.9858 29.4205C48.8845 31.971 47.991 34.0409 45.8818 34.0409C44.712 34.0409 43.8922 33.431 43.5422 32.4977L43.5146 32.4053H41.175L41.1934 32.5069C41.6171 34.5492 43.4409 36 45.8818 36C49.2253 36 51.2425 33.3386 51.2425 28.8475V28.829C51.2425 24.0238 48.774 22 45.937 22ZM45.9278 29.2726C44.4172 29.2726 43.3211 28.1637 43.3211 26.6205V26.602C43.3211 25.1142 44.4909 23.9406 45.9554 23.9406C47.4292 23.9406 48.5805 25.1327 48.5805 26.6574V26.6759C48.5805 28.1822 47.4292 29.2726 45.9278 29.2726Z" fill="white"/>
<path d="M55.4242 27.0271C56.2716 27.0271 56.8887 26.3802 56.8887 25.567C56.8887 24.7446 56.2716 24.1069 55.4242 24.1069C54.586 24.1069 53.9597 24.7446 53.9597 25.567C53.9597 26.3802 54.586 27.0271 55.4242 27.0271ZM55.4242 33.8838C56.2716 33.8838 56.8887 33.2462 56.8887 32.4238C56.8887 31.6013 56.2716 30.9637 55.4242 30.9637C54.586 30.9637 53.9597 31.6013 53.9597 32.4238C53.9597 33.2462 54.586 33.8838 55.4242 33.8838Z" fill="white"/>
<path d="M66.0535 35.6673H68.3286V33.1076H70.1155V31.1393H68.3286V22.3327H64.9666C63.1613 25.0865 61.2731 28.1545 59.5507 31.1578V33.1076H66.0535V35.6673ZM61.7613 31.1947V31.0561C63.0508 28.7921 64.589 26.3248 65.9522 24.2363H66.0904V31.1947H61.7613Z" fill="white"/>
<path d="M75.6236 35.6673H78V22.3327H75.6328L72.1603 24.7815V27.0271L75.467 24.6799H75.6236V35.6673Z" fill="white"/>
</svg>
